<svg width="100%" height="100%" viewBox="0 0 1280 1300" fill="none" xmlns="http://www.w3.org/2000/svg">
  <path fill-rule="evenodd" clip-rule="evenodd" d="M629.706 1024.28C946.808 1020.91 1284.67 1046.3 1506.74 1187.84C1727.35 1328.45 1829.01 1546.02 1746.49 1736.09C1674.46 1902 1346.11 1942.16 1132.32 2050.29C959.112 2137.9 852.474 2298.37 629.706 2300.96C405.701 2303.57 258.949 2165.72 108.027 2062.21C-32.6703 1965.71 -145.525 1863.11 -193.896 1736.09C-261.95 1557.39 -390.181 1355.04 -217.964 1206.2C-35.9542 1048.89 319.187 1027.59 629.706 1024.28Z" fill="#1B1F23"/>
  <path fill-rule="evenodd" clip-rule="evenodd" d="M1228.7 -154.725C1358.11 -150.958 1467.24 -100.644 1552.17 -41.6371C1630.56 12.8194 1662.34 81.5904 1672.31 153.454C1683.5 234.133 1702.61 324.855 1611.25 384.172C1518.29 444.528 1365.28 440.609 1228.7 441.468C1090.03 442.341 936.612 447.884 838.074 389.039C739.277 330.039 740.022 237.219 746.407 153.454C752.421 74.5585 782.527 -3.98613 872.412 -61.4222C964.798 -120.456 1094.26 -158.638 1228.7 -154.725Z" fill="#1B1F23" fill-opacity="0.35"/>
  <path fill-rule="evenodd" clip-rule="evenodd" d="M420.344 693.501C474.685 690.047 530.978 671.534 577.487 684.621C627.107 698.582 642.787 728.937 639.606 755.195C636.571 780.251 605.69 803.267 561.269 818.487C521.771 832.02 469.915 831.801 420.344 830.321C375.07 828.969 328.977 825.048 296.988 810.596C265.078 796.18 253.084 775.518 254.054 755.195C255.002 735.342 268.077 714.767 302.165 702.12C334.151 690.253 379.265 696.112 420.344 693.501Z" fill="#4DABAF" fill-opacity="0.09"/>
  <path fill-rule="evenodd" clip-rule="evenodd" d="M419.179 440.515C489.147 434.499 561.627 402.255 621.51 425.048C685.399 449.365 705.589 502.235 701.493 547.969C697.585 591.609 657.824 631.697 600.629 658.205C549.773 681.776 483.004 681.395 419.179 678.817C360.885 676.463 301.538 669.634 260.349 644.462C219.264 619.354 203.821 583.366 205.07 547.969C206.29 513.391 223.125 477.554 267.016 455.527C308.2 434.858 366.287 445.062 419.179 440.515Z" fill="#4D6F6C" fill-opacity="0.12"/>
  <path fill-rule="evenodd" clip-rule="evenodd" d="M-257.019 188.074C-54.7015 171.458 164.3 108.219 331.725 145.663C494.384 182.042 344.868 259.462 331.049 319.595C318.862 372.625 364.894 428.905 256.865 471.41C136.151 518.907 -55.9949 550.081 -257.019 550.977C-460.475 551.884 -672.602 525.845 -786.643 476.061C-889.502 431.157 -827.925 372.451 -787.042 319.595C-757.186 280.994 -692.251 246.801 -589.622 221.334C-496.449 198.215 -374.251 197.703 -257.019 188.074Z" fill="#1B1F23" fill-opacity="0.46"/>
  <path fill-rule="evenodd" clip-rule="evenodd" d="M468.926 831.493C560.05 820.894 658.688 780.555 734.096 804.44C807.358 827.646 740.016 877.031 733.792 915.389C728.303 949.217 749.035 985.117 700.379 1012.23C646.009 1042.53 559.467 1062.41 468.926 1062.99C377.289 1063.56 281.747 1046.95 230.383 1015.2C184.056 986.554 211.79 949.106 230.203 915.389C243.651 890.766 272.897 868.955 319.122 852.71C361.086 837.962 416.125 837.635 468.926 831.493Z" fill="#4D6F6C" fill-opacity="0.12"/>
  <path fill-rule="evenodd" clip-rule="evenodd" d="M1071.04 1081.48C979.309 1082.5 876.996 1112.32 804.496 1080.69C734.058 1049.96 806.191 1007.87 816.388 970.377C825.38 937.307 808.511 899.438 859.733 877.555C916.97 853.102 1005.12 842.365 1095.22 851.254C1186.42 860.251 1279.7 886.75 1327.47 923.698C1370.55 957.024 1339.06 991.37 1317.22 1022.98C1301.28 1046.06 1269.91 1064.7 1222.24 1076.03C1178.97 1086.31 1124.19 1080.89 1071.04 1081.48Z" fill="#1B1F23" fill-opacity="0.28"/>
  <path fill-rule="evenodd" clip-rule="evenodd" d="M1370.02 661.244C1459.7 641.885 1553.97 592.199 1631.34 608.683C1706.5 624.697 1644.25 680.361 1641.76 719.141C1639.57 753.341 1663.67 787.069 1617.87 818.76C1566.68 854.171 1482.47 882.33 1392.4 891.652C1301.25 901.086 1204.55 893.79 1150.36 867.147C1101.48 843.117 1125.46 803.163 1140.53 767.824C1151.53 742.017 1178.54 717.48 1222.97 696.843C1263.32 678.107 1318.06 672.461 1370.02 661.244Z" fill="#1B1F23" fill-opacity="0.45"/>
  <path fill-rule="evenodd" clip-rule="evenodd" d="M-163.188 779.346C-247.469 815.576 -330.44 882.453 -409.53 881.144C-486.368 879.871 -435.973 813.282 -440.985 774.747C-445.405 740.763 -475.543 712.296 -436.68 672.393C-393.252 627.805 -316.019 583.988 -229.427 557.533C-141.787 530.758 -45.487 519.335 12.8165 535.068C65.403 549.257 49.5436 593.075 41.5476 630.651C35.7082 658.092 13.9254 687.36 -25.7179 716.152C-61.7081 742.291 -114.352 758.353 -163.188 779.346Z" fill="#1B1F23" fill-opacity="0.45"/>
  </svg>
